<?xml version="1.0" ?>
<svg xmlns="http://www.w3.org/2000/svg" xmlns:ev="http://www.w3.org/2001/xml-events" xmlns:xlink="http://www.w3.org/1999/xlink" baseProfile="full" height="600px" version="1.1" viewBox="-11.299999999999997 -160.8 1459.6 1921.6" width="456px">
	<defs/>
	<path d="M 965.0,1402.0 Q 842.0,1511.0 734.0,1555.5 Q 626.0,1600.0 515.0,1600.0 Q 341.0,1600.0 226.0,1469.5 Q 111.0,1339.0 111.0,1114.0 M 704.0,576.0 Q 891.0,565.0 961.0,551.5 Q 1031.0,538.0 1080.0,512.0 Q 1107.0,453.0 1107.0,415.0 Q 1107.0,343.0 1034.5,299.5 Q 962.0,256.0 824.0,256.0 Q 546.0,256.0 464.0,512.0 L 239.0,512.0 Q 381.0,0.0 837.0,0.0 Q 1062.0,0.0 1194.0,110.0 Q 1326.0,220.0 1326.0,386.0 Q 1326.0,512.0 1296.0,683.0 L 1224.0,1080.0 Q 1190.0,1270.0 1190.0,1387.0 Q 1190.0,1468.0 1215.0,1600.0 L 992.0,1600.0 Q 973.0,1525.0 965.0,1402.0 M 1047.0,768.0 Q 965.0,810.0 768.0,832.0 M 333.0,1109.0 Q 333.0,1218.0 400.5,1281.0 Q 468.0,1344.0 581.0,1344.0 Q 687.0,1344.0 786.0,1284.0 Q 885.0,1224.0 1010.0,997.0 L 1047.0,768.0" fill="none" stroke="#000000" stroke-width="1.6"/>
</svg>
