<?xml version="1.0" ?>
<svg xmlns="http://www.w3.org/2000/svg" xmlns:ev="http://www.w3.org/2001/xml-events" xmlns:xlink="http://www.w3.org/1999/xlink" baseProfile="full" height="255px" version="1.1" viewBox="-0.31650000000000045 -1.4165 39.633 16.833" width="600px">
	<defs/>
	<path d="M 15.0,0.0 Q 17.0,0.0 20.0,2.0 L 23.0,6.0 Q 25.0,8.0 27.0,9.0 Q 29.0,9.0 30.0,5.0 Q 31.0,1.0 33.0,1.0 Q 34.0,1.0 35.0,2.0 Q 36.0,3.0 36.0,4.0 Q 36.0,8.0 33.0,11.0 Q 31.0,14.0 27.0,14.0 Q 24.0,14.0 21.0,12.0 Q 19.0,11.0 17.0,8.0 Q 15.0,5.0 15.0,5.0 Q 12.0,5.0 8.0,11.0 Q 8.0,13.0 6.0,13.0 Q 5.0,13.0 4.0,12.0 Q 3.0,11.0 3.0,10.0 Q 3.0,10.0 3.0,9.0 Q 5.0,5.0 8.0,3.0 Q 11.0,0.0 15.0,0.0" fill="none" stroke="#000000" stroke-width="0.033"/>
</svg>
